<svg width="40" height="40" viewBox="0 0 40 40" fill="none" xmlns="http://www.w3.org/2000/svg">
<path d="M38.4222 13.7911C39.5009 12.3471 39.9646 10.5316 39.711 8.74421C39.4575 6.95677 38.5076 5.34372 37.0702 4.25992C35.6329 3.17612 33.8259 2.71034 32.0467 2.96506C30.2676 3.21977 28.662 4.17411 27.5832 5.61813L30.2545 7.63236C30.8015 6.90009 31.6157 6.41615 32.5179 6.28698C33.4201 6.15781 34.3365 6.39401 35.0653 6.94361C35.7942 7.4932 36.2759 8.31118 36.4045 9.21759C36.5331 10.124 36.298 11.0446 35.7509 11.7769L38.4222 13.7911Z" fill="#F05537"/>
<path d="M6.41399 31.5086C5.12486 31.7821 1.97427 31.6705 0.210919 31.1133C-1.22559 29.1127 9.03156 27.8533 13.5302 27.4646L5.12154 30.424L6.41399 31.5086Z" fill="#121224"/>
<path d="M25.8816 5.63477C25.8816 5.63477 27.9574 6.26369 28.1775 9.36669C27.8389 9.33913 27.0484 9.35563 27.0484 9.35563C27.0484 9.35563 27.1949 7.1001 25.7168 6.64264C25.8359 6.38068 25.8816 5.63477 25.8816 5.63477Z" fill="white" stroke="#121224" stroke-width="0.659202" stroke-miterlimit="10"/>
<path d="M16.1499 9.42026C16.5903 9.49845 17.6593 9.72963 17.6593 9.72963C17.6593 9.72963 16.9626 7.71522 18.2753 6.80488C18.3092 6.65384 18.3437 6.41384 18.3023 6.12429C18.2702 5.90028 18.2034 5.72075 18.1457 5.59619C17.5887 5.87124 16.3738 6.80735 16.1499 9.42026Z" fill="white" stroke="#121224" stroke-width="0.659202" stroke-miterlimit="10"/>
<path d="M18.3213 5.08402C18.3692 5.88395 18.4172 6.68376 18.4651 7.48349C19.4141 7.14315 20.4494 6.748 21.5595 6.69386C22.9982 6.62367 24.3124 6.8699 25.4793 7.2746C25.5311 7.17564 25.6408 6.93741 25.6915 6.54697C25.773 5.91799 25.6364 5.3916 25.6111 5.29778C25.0174 4.99393 24.3725 4.73555 23.6803 4.55365C21.689 4.03032 19.8811 4.46371 18.3213 5.08402Z" stroke="#121224" stroke-width="0.8" stroke-miterlimit="10"/>
<path d="M8.41524 9.49512L6.96465 9.86671L4.75472 29.7666C4.70457 30.2181 4.9211 30.6517 5.29635 30.8515L10.4186 33.5787" fill="white"/>
<path d="M8.40553 9.5309C7.94037 9.71031 7.46817 9.87028 6.99502 10.0299L7.13046 9.88392L7.10072 10.7173C7.03029 12.0972 6.926 13.4963 6.75286 14.8662C6.60939 15.9686 6.37198 17.0619 6.18745 18.1593C5.72017 20.906 5.78986 23.6965 5.50297 26.4581C5.41809 27.4254 5.29585 28.8194 5.16712 29.7719C5.11688 30.0762 5.2324 30.4223 5.53851 30.5748L5.63585 30.6306C7.26227 31.5607 8.8684 32.5103 10.4184 33.5472L10.3769 33.6107C8.58656 32.8736 6.85602 32.0458 5.13399 31.1936C4.52875 30.9202 4.23404 30.2784 4.30809 29.6943C4.35929 29.1415 4.42204 28.5898 4.48884 28.0385C4.75856 25.8565 5.10305 23.6022 5.4897 21.4404C5.6655 20.3416 5.7988 19.2389 5.86162 18.1298C5.92206 17.0212 5.92978 15.9072 6.0316 14.8009C6.1374 13.6954 6.29018 12.5944 6.46488 11.4959C6.5385 11.0325 6.6906 10.1867 6.78082 9.72353C7.3138 9.62999 7.84547 9.53236 8.38321 9.45996L8.40552 9.5309L8.40553 9.5309Z" fill="#121224"/>
<path d="M35.3913 10.0499L39.4208 30.659L10.6718 33.2527L8.72078 9.79821L35.3913 10.0499Z" fill="white" stroke="#121224" stroke-width="0.6"/>
<path d="M8.36426 9.47004C17.3739 9.36306 26.6218 9.2824 35.6418 9.44887L35.9263 9.4544C36.4777 12.695 37.2784 17.1248 37.8481 20.318C38.5045 23.8527 39.2105 27.3795 39.9622 30.8988L39.9997 31.0743L39.7971 31.0955C30.3226 32.102 19.921 33.1227 10.4407 33.9698L9.99386 34.0101L9.9632 33.6082C9.33542 25.8492 8.82623 17.2635 8.36426 9.47004V9.47004ZM8.42388 9.52047C9.02202 15.0643 9.7581 22.0773 10.289 27.6016C10.4826 29.586 10.6527 31.5669 10.8316 33.5494L10.3541 33.1878C19.8292 32.3274 30.2561 31.4633 39.76 30.7606L39.595 30.9573C38.9667 27.4183 38.2926 23.8865 37.5688 20.3625C36.9596 17.2948 35.9513 12.9111 35.3072 9.80506L35.6348 10.0558C33.3846 10.0573 31.1419 10.0447 28.8948 10.0101C22.1653 9.91488 15.1547 9.72703 8.42387 9.52047H8.42388Z" fill="#121224"/>
<path d="M9.16412 9.41398C9.10667 9.31781 9.02836 9.21214 8.92387 9.11655C8.92517 9.11659 8.92647 9.11663 8.92777 9.11668C9.00516 9.11929 9.08328 9.12192 9.1632 9.12273L35.6805 9.38978C36.0593 9.39361 36.3979 9.6723 36.4802 10.0733L37.2951 15.3902L38.0075 20.0378C38.0052 20.0561 38.0019 20.081 37.9973 20.1109C37.9867 20.1803 37.9696 20.274 37.9438 20.3728C37.9177 20.4728 37.8847 20.5703 37.8448 20.6508C37.8031 20.7348 37.7652 20.7773 37.7413 20.7944C37.6405 20.8662 37.5145 20.9055 37.3791 20.9087L35.3711 20.9559L11.5845 21.5143C11.065 21.5265 10.6227 21.1341 10.5725 20.6101L10.5725 20.6101L10.5721 20.6065L10.2739 20.6387L10.5721 20.6065L10.5721 20.6062L10.572 20.6051L10.5715 20.6007L10.5696 20.5834L10.5623 20.5157L10.5345 20.2575L10.4341 19.3262L10.1197 16.4121C9.88468 14.234 9.6319 11.8932 9.56107 11.2442C9.52315 10.8968 9.46102 10.5483 9.40127 10.2131C9.37845 10.0852 9.35598 9.95914 9.33534 9.83587L9.33348 9.82473L9.33078 9.81376C9.31979 9.76909 9.27532 9.60012 9.16412 9.41398Z" fill="white" stroke="#121224" stroke-width="0.6"/>
<path d="M38.2693 20.0328C37.7819 16.8055 37.1683 13.5689 36.5645 10.3607L36.5125 10.0766C36.4432 9.72395 36.1217 9.38002 35.7148 9.37243C27.2067 9.4853 18.6887 8.92718 10.1827 8.96209C9.75501 8.96031 9.33486 8.96417 8.90105 8.95776C8.5136 8.95022 8.11713 8.96647 7.78093 9.13457L7.62823 8.85056L7.68454 8.84067L8.81132 8.64258L7.78672 9.15088C7.4657 9.28534 7.1854 9.54929 7.14688 9.87564L6.75875 9.78947C7.33221 8.64212 9.01336 8.54781 9.3078 9.91219C9.42411 10.4763 9.53841 11.0636 9.60239 11.6329C9.97903 14.5517 10.3376 17.6704 10.6782 20.6007C10.7124 21.0343 11.1022 21.4544 11.5779 21.4336C11.5906 21.4345 11.6885 21.4298 11.7066 21.4299C16.1455 21.3004 20.8215 21.1987 25.2584 21.1757C28.8964 21.1629 32.7515 21.2228 36.3839 21.1767C36.7281 21.1788 37.081 21.1647 37.4242 21.1604C37.6391 21.1476 37.8588 21.0649 37.9867 20.9045C38.1672 20.6515 38.2282 20.3243 38.2693 20.0328ZM38.351 20.0308C38.3071 20.3795 38.2506 20.737 38.008 21.0195C37.8581 21.1602 37.6453 21.2389 37.4315 21.2537C35.2303 21.3213 33.0304 21.4226 30.8316 21.5373C28.1591 21.668 25.1565 21.8378 22.4985 21.919C18.9696 22.0332 15.069 22.1445 11.5377 22.1939C10.6323 22.1882 10.3086 21.3826 10.2561 20.6007C10.2524 20.5645 10.2371 20.4084 10.2328 20.3664C9.95294 17.5101 9.24906 14.5358 9.00606 11.6857C8.96831 11.166 8.90166 10.6567 8.8164 10.1424C8.78633 9.72982 8.55121 9.27143 8.01941 9.32718C7.63598 9.3624 7.29668 9.6296 7.12821 9.94419L6.64795 10.8002L6.74006 9.85802C6.76574 9.62211 6.88714 9.41052 7.05189 9.23249C7.21277 9.06432 7.41583 8.94186 7.6384 8.85305L7.74058 9.16326L7.70387 9.16833L7.00037 9.26575L7.55116 8.88431C7.62509 8.8331 7.68247 8.81425 7.74067 8.79295C8.31999 8.5895 8.94857 8.69287 9.54717 8.69233C9.93519 8.70304 11.0564 8.71854 11.4632 8.72842C19.4473 8.88258 27.4363 8.53563 35.4185 8.80212L35.5781 8.80633C35.6339 8.80828 35.6762 8.80753 35.7537 8.81338C36.4431 8.85735 36.9622 9.41182 37.0444 10.0006C37.4469 13.3385 37.8305 16.7051 38.351 20.0308Z" fill="#121224"/>
<path d="M18.0151 23.5991L15.9615 23.8878C15.7634 23.9156 15.5927 23.6472 15.5841 23.2909L15.5023 19.9226C15.4936 19.5662 15.6506 19.2704 15.8493 19.2652L17.909 19.2115C18.0863 19.2069 18.2368 19.4751 18.2448 19.8076L18.3207 22.9498C18.3288 23.2822 18.1919 23.5742 18.0151 23.5991H18.0151Z" fill="white" stroke="#121224" stroke-width="0.7" stroke-miterlimit="10"/>
<path d="M34.2895 22.9409L32.2359 23.2296C32.0378 23.2574 31.8672 22.989 31.8585 22.6327L31.7767 19.2644C31.7681 18.908 31.925 18.6122 32.1237 18.607L34.1835 18.5533C34.3608 18.5487 34.5112 18.8169 34.5192 19.1494L34.5951 22.2916C34.6032 22.624 34.4663 22.916 34.2895 22.9409H34.2895Z" fill="white" stroke="#121224" stroke-width="0.7" stroke-miterlimit="10"/>
<path d="M7.29629 28.0666L7.39228 27.2281C7.4018 27.127 7.40161 27.0224 7.41368 26.9234L7.54752 25.8436C7.56459 25.6859 7.56941 25.5226 7.57474 25.3639C7.5675 25.1589 7.58254 24.9538 7.6196 24.752C7.65407 24.6249 7.99725 24.8024 7.98492 25.0433C7.97739 25.464 7.9377 25.8835 7.86619 26.2981C7.82223 26.5472 7.82167 26.81 7.79356 27.0758L7.71238 27.9219L7.67242 28.4123C7.6489 28.6777 7.62283 28.941 7.61513 29.2023C7.60783 29.4054 7.62348 29.6059 7.62792 29.8099L7.63377 29.9441C7.62895 30.1074 7.59996 30.1595 7.48674 30.1862C7.47452 30.2016 7.43727 30.2011 7.41431 30.2037C7.39136 30.2063 7.26521 30.1392 7.24663 30.0157C7.19647 29.643 7.18743 29.2659 7.21966 28.8912C7.23652 28.608 7.25744 28.3197 7.28911 28.0441L7.29629 28.0666Z" fill="#121224"/>
</svg>
