<svg width="40" height="40" viewBox="0 0 40 40" fill="none" xmlns="http://www.w3.org/2000/svg">
<ellipse cx="14.7805" cy="10.0874" rx="6.77612" ry="6.80764" fill="#F05537"/>
<path d="M10.4222 13.3644L8.78076 14.3752L13.729 22.9603L26.9664 13.7233L21.921 6.07764L18.1731 8.5208L16.8041 10.1L15.3087 12.0169L13.729 12.2482L12.1915 12.6905L10.4222 13.3644Z" fill="white"/>
<path d="M17.5 14.1004C16.9129 13.5444 16.2862 13.0316 15.625 12.5661C15.549 12.5122 15.4697 12.4631 15.3875 12.4192C15.2813 12.3661 15.3219 12.3692 15.275 12.3692L14.6875 12.4036L14.375 12.4254L14.0813 12.4786L13.4906 12.5848C12.9237 12.7323 12.3681 12.9203 11.8281 13.1473L11.4656 13.2911L11.1125 13.4598C10.8781 13.5786 10.6406 13.6848 10.4094 13.8067C9.95938 14.0723 9.49688 14.3192 9.06563 14.6223C8.18134 15.2019 7.34529 15.8519 6.56563 16.5661L6.05 17.0473C5.88125 17.2098 5.72188 17.3848 5.55938 17.5536C5.22813 17.8848 4.93438 18.2504 4.62188 18.6004C3.8937 19.5361 3.21667 20.5104 2.59375 21.5192C2.39063 21.8317 2.25 21.7036 2.25 21.3379C2.256 21.0956 2.29813 20.8554 2.375 20.6254C2.48433 20.3208 2.63131 20.0311 2.8125 19.7629C3.52989 18.7267 4.34282 17.76 5.24063 16.8754C6.13476 15.9804 7.10857 15.1687 8.15 14.4504C9.41245 13.5405 10.7874 12.7979 12.2406 12.2411C13.0584 11.9577 13.909 11.7803 14.7719 11.7129L15.0844 11.6911H15.2625C15.3344 11.6911 15.4281 11.6567 15.4969 11.7192L15.8438 11.8754C15.9438 11.9317 16.025 11.9973 16.1156 12.0567C16.3 12.1786 16.4719 12.3067 16.6375 12.4411C16.8031 12.5754 16.975 12.7036 17.1344 12.8411C17.9313 13.5129 18.6969 14.2254 19.4219 14.9536C20.5375 16.0567 21.6094 17.2161 22.6344 18.3911C23.4313 19.2973 24.2281 20.1786 24.9813 21.1129C25.1469 21.3161 25.2938 21.5223 25.4688 21.7379C26.0656 22.5254 26.1844 22.8286 26.15 23.1036C26.1466 23.1668 26.1372 23.2296 26.1219 23.2911C26.05 23.4504 25.7219 23.1879 25.2875 22.6286C23.9594 20.9879 22.5281 19.2817 21.0063 17.6286C19.875 16.4129 18.7156 15.2098 17.4813 14.1036L17.5 14.1004Z" fill="#121224"/>
<path d="M24.8131 5.37822C24.3944 5.49385 23.9881 5.64385 23.5819 5.79072C23.1756 5.9376 22.7819 6.10322 22.3787 6.2876C22.085 6.40635 21.8225 6.6001 21.5381 6.7251C20.538 7.21491 19.6018 7.82573 18.7506 8.54385L18.4662 8.78447C18.3756 8.86572 18.2975 8.95947 18.21 9.0501L17.7131 9.59385L17.1881 10.3626C17.034 10.6315 16.8661 10.8923 16.685 11.1438C16.5662 11.3001 16.4006 11.2001 16.3194 10.9626C16.2698 10.8035 16.2537 10.6359 16.272 10.4703C16.2902 10.3046 16.3426 10.1446 16.4256 10.0001C17.1908 8.8576 18.1979 7.89741 19.3756 7.1876C19.7131 6.95947 20.0694 6.7501 20.4225 6.53135C20.7756 6.3126 21.1412 6.10947 21.5037 5.90635C21.8662 5.70322 22.3287 5.52822 22.7537 5.3376C23.1787 5.14697 23.6006 5.0251 24.0225 4.85635L24.8194 4.60947C25.0819 4.52197 25.3506 4.4501 25.6194 4.38447L26.2444 4.23135C26.4506 4.18135 26.6569 4.14697 26.8694 4.10635C27.0819 4.06572 27.2819 4.01885 27.4944 3.98447L28.1194 3.89072C28.4319 3.83135 28.76 3.79385 29.0787 3.7501C29.2381 3.73135 29.3912 3.70322 29.56 3.6876L30.0475 3.65635C30.1912 3.65635 30.3319 3.63447 30.4756 3.63135C31.0162 3.6626 31.1881 3.73135 31.2725 3.94385C31.2961 3.98972 31.3149 4.03789 31.3287 4.0876C31.3569 4.24385 31.1319 4.35322 30.7631 4.36885C29.6275 4.42717 28.497 4.55974 27.3787 4.76572C26.9569 4.85947 26.5287 4.92822 26.11 5.0501L25.485 5.2126L24.86 5.40635L24.8131 5.37822Z" fill="#121224"/>
<path d="M34.6504 12.7213L33.6692 10.9931C33.5473 10.7838 33.4161 10.5775 33.3004 10.3681C32.8973 9.61501 32.5067 8.85251 32.1567 8.06501C32.0036 7.71813 31.8442 7.36813 31.7036 7.01188C31.4806 6.55642 31.3733 6.05305 31.3911 5.54626C31.3911 5.38376 31.5098 5.42126 31.6192 5.54626C31.7577 5.70901 31.8638 5.89676 31.9317 6.09938C32.2596 7.00292 32.6372 7.88761 33.0629 8.74938C33.3036 9.28688 33.6348 9.80563 33.9348 10.3275L34.9442 12.0463L35.5692 13.0994C35.8817 13.6306 36.1942 14.1713 36.5348 14.6931C36.7911 15.0994 37.0723 15.4806 37.3254 15.8869C37.3817 15.9806 37.4379 16.065 37.4879 16.1588C37.6817 16.5056 37.6567 16.665 37.5786 16.7838C37.561 16.8144 37.5411 16.8436 37.5192 16.8713C37.4473 16.9463 37.2973 16.84 37.1067 16.6275C36.6004 15.9588 36.1473 15.2025 35.6692 14.44C35.3192 13.8775 34.9754 13.3056 34.6317 12.7306L34.6504 12.7213Z" fill="#121224"/>
<path d="M32.6374 18.1773C31.9882 18.399 31.3607 18.6793 30.7624 19.0148C30.5374 19.1335 30.3373 19.2898 30.1374 19.4179C29.3762 19.8924 28.6726 20.4535 28.0405 21.0898C27.7636 21.3798 27.5127 21.6935 27.2905 22.0273C27.0092 22.4492 26.778 22.8992 26.478 23.3117C26.3811 23.4398 26.2155 23.3367 26.1155 23.1273C26.0542 23.0014 26.0244 22.8626 26.0287 22.7226C26.0331 22.5827 26.0714 22.4459 26.1405 22.3242C26.7085 21.3629 27.4603 20.5229 28.353 19.8523C28.8811 19.4554 29.403 19.0085 29.978 18.6523C30.6063 18.2634 31.2683 17.9318 31.9561 17.6617C32.3796 17.4965 32.8114 17.3536 33.2498 17.2335C33.917 17.0582 34.5992 16.9462 35.2873 16.8992C35.8255 16.8457 36.3682 16.8593 36.903 16.9398C37.025 16.9541 37.1454 16.9803 37.2623 17.0179C37.7061 17.1585 37.8123 17.3054 37.7905 17.521C37.7875 17.5703 37.7812 17.6194 37.7717 17.6679C37.7155 17.821 37.5186 17.8304 37.253 17.7679C36.4024 17.5818 35.524 17.5605 34.6655 17.7054C33.9869 17.8051 33.32 17.9726 32.6748 18.2054L32.6374 18.1773Z" fill="#121224"/>
<path d="M32.8315 18.6851C32.2542 18.9256 31.6981 19.2141 31.169 19.5476C30.9753 19.6695 30.7909 19.8038 30.6034 19.9351C29.9306 20.3895 29.2971 20.8996 28.7097 21.4601C28.4522 21.7117 28.2081 21.9767 27.9784 22.2538C27.6891 22.6024 27.4249 22.971 27.1878 23.357C27.119 23.4757 27.0628 23.4413 27.0503 23.2976C27.0439 23.0772 27.1026 22.8598 27.219 22.6726C27.7345 21.8454 28.3951 21.1181 29.169 20.5257C29.6222 20.1632 30.0784 19.7695 30.569 19.4351C31.106 19.0597 31.6713 18.7264 32.2597 18.4382C32.6247 18.2668 32.9992 18.1165 33.3815 17.9882C33.9614 17.793 34.5625 17.6682 35.1722 17.6163C35.6445 17.5658 36.1213 17.5763 36.5909 17.6476C36.6964 17.6595 36.8009 17.6794 36.9034 17.707C37.0418 17.7359 37.1733 17.791 37.2909 17.8695C37.3545 17.9099 37.3995 17.974 37.4159 18.0476C37.4254 18.078 37.4306 18.1095 37.4315 18.1413C37.4315 18.2382 37.2565 18.2538 37.0034 18.1913C36.6161 18.113 36.2232 18.066 35.8284 18.0507C35.4222 18.0475 35.0165 18.0799 34.6159 18.1476C34.0064 18.259 33.4119 18.4404 32.844 18.6882L32.8315 18.6851Z" fill="#121224"/>
<path d="M32.4061 19.9062C32.1624 20.0093 31.9155 20.0999 31.678 20.2187C31.4357 20.3265 31.1989 20.4465 30.9686 20.578C30.7999 20.6687 30.6374 20.7749 30.4749 20.8905C29.8854 21.2397 29.3243 21.6347 28.7967 22.0718C28.5646 22.2656 28.3454 22.4744 28.1405 22.6968C28.0092 22.8405 27.8749 22.978 27.7499 23.1249C27.6258 23.275 27.4933 23.4179 27.353 23.553C27.1749 23.7218 27.0874 23.2655 27.3717 22.8905C27.8959 22.2601 28.5073 21.7077 29.1874 21.2499C29.3936 21.1187 29.5967 20.9718 29.8124 20.8218L30.4374 20.4062C30.6749 20.2718 30.9155 20.1312 31.1592 20.003C31.403 19.8749 31.6499 19.753 31.9061 19.6499L32.3749 19.453L32.853 19.278C33.0936 19.1874 33.3467 19.1312 33.5905 19.053C33.8342 18.9749 34.0936 18.9343 34.3436 18.8874C34.7345 18.805 35.1319 18.7569 35.5311 18.7437C35.6217 18.7437 35.7092 18.7437 35.7999 18.7437C36.1374 18.7843 36.2311 18.878 36.2686 18.9937C36.2807 19.0183 36.2892 19.0447 36.2936 19.0718C36.2936 19.1093 36.2655 19.1374 36.1999 19.1624C36.117 19.1973 36.0271 19.2123 35.9374 19.2062C35.2581 19.1993 34.5808 19.2791 33.9217 19.4437C33.6655 19.4968 33.4155 19.5874 33.1624 19.653C32.9092 19.7187 32.6592 19.8218 32.4155 19.9312L32.4061 19.9062Z" fill="#121224"/>
<path d="M9.52826 27.2155C10.3324 27.8405 11.1189 28.48 11.8876 29.1342C12.1689 29.3748 12.4626 29.5998 12.7345 29.8498C13.2189 30.2873 13.672 30.7467 14.1439 31.2123C14.372 31.4436 14.5908 31.6905 14.8158 31.928L15.1283 32.2998L15.2814 32.4748L15.3501 32.5623L15.4033 32.6311L15.522 32.7811C15.522 32.7811 15.5408 32.8092 15.5533 32.8123V32.7655L15.5751 32.6748C15.5908 32.6123 15.6095 32.5498 15.6283 32.4936L15.6564 32.4061L15.7376 32.2217C15.9015 31.8516 16.1349 31.5163 16.4251 31.2342C16.7244 30.9512 17.0949 30.7547 17.497 30.6655C17.7501 30.6186 17.7439 30.8217 17.6251 31.053C17.4821 31.326 17.2904 31.5706 17.0595 31.7748C16.7704 32.027 16.5418 32.341 16.3908 32.6936C16.3908 32.6936 16.3595 32.7686 16.3376 32.8217C16.3158 32.8748 16.297 32.928 16.2783 32.9873C16.2408 33.0967 16.2095 33.2155 16.1783 33.3342L16.1283 33.5123C16.0953 33.5345 16.0608 33.5543 16.0251 33.5717L15.847 33.5936H15.7314H15.7033C15.7033 33.5467 15.7876 34.0155 15.747 33.8155H15.7251L15.6345 33.778L15.2751 33.6248C15.097 33.4061 14.9314 33.1905 14.747 32.9748L14.472 32.6623C14.297 32.4436 14.1064 32.2373 13.922 32.0373C13.3012 31.3706 12.6384 30.7443 11.9376 30.1623C11.1814 29.503 10.4033 28.8592 9.60951 28.2405C9.11888 27.8592 8.62826 27.4811 8.12201 27.1186C7.36576 26.5655 6.57513 26.0405 5.80326 25.4998C5.20013 25.0811 4.59388 24.6936 4.00638 24.2498C3.87826 24.1561 3.74701 24.0655 3.62201 23.9623C3.15638 23.578 3.05326 23.3967 3.10013 23.1655C3.1046 23.1121 3.11616 23.0595 3.13451 23.0092C3.20326 22.8592 3.44701 22.9373 3.80326 23.1873C4.83138 23.8998 5.93763 24.6873 7.04076 25.428C7.87513 25.9811 8.72513 26.5873 9.54076 27.1967L9.52826 27.2155Z" fill="#121224"/>
<path d="M16.2657 32.4695C16.3814 32.3195 16.5001 32.157 16.622 32.0258C16.6657 31.9726 16.7032 31.9164 16.7501 31.8633C16.9206 31.6835 17.1067 31.5193 17.3064 31.3726C17.397 31.3101 17.4876 31.2414 17.5876 31.182C17.6544 31.1375 17.7298 31.1075 17.809 31.094C17.8881 31.0806 17.9692 31.0839 18.047 31.1039C18.097 31.1039 18.0689 31.1945 18.0282 31.2695C17.9876 31.3445 17.9501 31.4195 17.9033 31.4414C17.6934 31.5359 17.4952 31.6544 17.3126 31.7945C17.194 31.8986 17.089 32.0172 17.0001 32.1476C16.8845 32.282 16.772 32.4258 16.6658 32.5726C16.6001 32.6633 16.5376 32.757 16.4751 32.8508C16.3809 32.9918 16.2943 33.1379 16.2157 33.2883C16.1564 33.407 16.1251 33.5351 16.0782 33.657C16.0703 33.6835 16.0609 33.7096 16.0501 33.7351C16.0032 33.832 15.9658 33.8539 15.872 33.8351H15.8095C15.7747 33.8249 15.7452 33.8017 15.7272 33.7702C15.7091 33.7388 15.7039 33.7016 15.7126 33.6664C15.7521 33.4162 15.838 33.1756 15.9657 32.957C16.0595 32.7945 16.1657 32.6445 16.2782 32.4789L16.2657 32.4695Z" fill="#121224"/>
<path d="M10.8058 30.7966L9.00892 29.3747C8.78705 29.2091 8.55892 29.0622 8.33392 28.8935C7.94017 28.606 7.53705 28.3279 7.1308 28.056C6.72455 27.7841 6.32142 27.506 5.89955 27.2591C5.52767 27.0341 5.14955 26.8154 4.77455 26.6029C4.29017 26.3341 3.80892 26.0529 3.34955 25.7404C3.20892 25.6404 3.25892 25.5935 3.4183 25.606C3.67048 25.6311 3.91552 25.7043 4.14017 25.8216C4.65267 26.0747 5.14642 26.3591 5.63705 26.6466C6.12767 26.9341 6.62142 27.2247 7.09017 27.556C7.65267 27.9466 8.26205 28.3247 8.83392 28.7341C9.45892 29.1904 10.0589 29.6716 10.6683 30.1404L11.7902 31.0185C12.3527 31.4654 12.9027 31.9341 13.437 32.4091C13.8527 32.781 14.2714 33.131 14.6558 33.5279C14.7433 33.6122 14.8277 33.6966 14.912 33.7872C15.2245 34.131 15.2683 34.2685 15.2589 34.4122C15.2623 34.4423 15.2623 34.4727 15.2589 34.5029C15.2308 34.581 15.062 34.4841 14.8214 34.2622C14.0995 33.6091 13.3745 32.9091 12.5933 32.2466C12.012 31.7529 11.4173 31.2716 10.8089 30.8029L10.8058 30.7966Z" fill="#121224"/>
<path d="M10.7378 31.3715C10.1659 30.9747 9.5909 30.5809 9.00652 30.1997C8.79715 30.059 8.57527 29.9372 8.35965 29.7965C7.60965 29.307 6.85131 28.8288 6.08465 28.3622C5.74402 28.1559 5.39715 27.959 5.0534 27.7622C4.60965 27.5122 4.15965 27.2778 3.73465 26.984C3.6034 26.8903 3.66277 26.8434 3.81277 26.8497C4.04467 26.8697 4.27008 26.9367 4.47527 27.0466C4.93465 27.2872 5.39402 27.5309 5.84402 27.7903C6.29402 28.0497 6.73777 28.3278 7.1784 28.6153C7.70027 28.959 8.27215 29.2747 8.81277 29.6184C9.40965 29.9997 10.0003 30.3872 10.5815 30.7872C10.9409 31.0278 11.2909 31.2872 11.6471 31.5372C12.1784 31.9215 12.7065 32.3247 13.2096 32.7372C13.4128 32.8872 13.6003 33.0497 13.7971 33.2153L14.0909 33.459L14.3628 33.7247L14.6034 33.9622C14.8659 34.2997 14.9159 34.4372 14.8878 34.559C14.8902 34.585 14.8902 34.6112 14.8878 34.6372C14.8628 34.6965 14.6909 34.609 14.5003 34.3965C13.8501 33.7609 13.1613 33.166 12.4378 32.6153L11.6003 31.9903L10.7409 31.384L10.7378 31.3715Z" fill="#121224"/>
<path d="M24.8784 9.51171C25.2108 9.37608 25.551 9.26025 25.8971 9.16484C26.019 9.12421 26.144 9.08359 26.2721 9.05234C26.717 8.94954 27.1679 8.8744 27.6221 8.82734L28.2252 8.74921C28.3534 8.74921 28.4815 8.72109 28.6096 8.71171C28.7391 8.7086 28.8686 8.71487 28.9971 8.73046C29.1565 8.74921 28.9534 9.04296 28.6846 9.08671C28.1784 9.13359 27.6815 9.19296 27.1721 9.25546C26.8627 9.30523 26.5583 9.38263 26.2627 9.48671C25.9319 9.58397 25.6064 9.69871 25.2877 9.83046C25.0909 9.91171 24.8971 9.99609 24.7065 10.093C24.4173 10.234 24.1394 10.3969 23.8752 10.5805C23.6811 10.7315 23.4974 10.8954 23.3252 11.0711L23.2127 11.1867C23.069 11.3242 23.0002 11.343 22.8815 11.2805L22.7909 11.2492C22.7065 11.193 22.7127 11.0742 22.8096 10.9367C23.1093 10.5568 23.4796 10.2384 23.9002 9.99921C24.2123 9.81138 24.5371 9.64536 24.8721 9.50234L24.8784 9.51171Z" fill="#121224"/>
<path d="M25.8376 12.2719C26.0845 12.1469 26.3407 12.0375 26.5939 11.9344C26.6876 11.8969 26.7751 11.85 26.872 11.8156C27.2032 11.6969 27.5439 11.5969 27.8814 11.5031C28.0314 11.4625 28.1939 11.4187 28.3282 11.3719C28.5145 11.3015 28.7106 11.2604 28.9095 11.25C29.0345 11.25 28.9407 11.5625 28.7376 11.6469C28.3657 11.7625 27.9939 11.8687 27.6095 11.9594C27.3786 12.0278 27.1547 12.1177 26.9407 12.2281C26.7001 12.3344 26.4595 12.4469 26.2251 12.5719C26.0782 12.6469 25.9345 12.725 25.797 12.8125C25.5796 12.9369 25.3708 13.0757 25.172 13.2281C25.0319 13.3557 24.8994 13.4913 24.7751 13.6344L24.6876 13.75C24.5782 13.8594 24.522 13.8687 24.4095 13.8L24.3439 13.75C24.3247 13.7341 24.309 13.7145 24.2977 13.6923C24.2863 13.6702 24.2796 13.646 24.2778 13.6212C24.276 13.5964 24.2793 13.5715 24.2875 13.5479C24.2956 13.5244 24.3084 13.5028 24.3251 13.4844C24.535 13.1773 24.8038 12.915 25.1157 12.7125C25.3464 12.5532 25.5853 12.4061 25.8314 12.2719H25.8376Z" fill="#121224"/>
<path d="M10.2562 18.6089C10.6093 18.3402 10.9718 18.0777 11.3468 17.8371C11.4843 17.7496 11.6156 17.6527 11.7562 17.5714C12.0062 17.4277 12.2625 17.2996 12.5062 17.1652C12.75 17.0308 13.0031 16.8964 13.2625 16.7683C13.5218 16.6402 13.7187 16.5433 13.9593 16.4558C14.2697 16.3054 14.6188 16.2542 14.9593 16.3089C15.0687 16.3339 15.0312 16.4214 14.9406 16.5058C14.8361 16.6043 14.708 16.6742 14.5687 16.7089C13.9752 16.8821 13.4053 17.1277 12.8718 17.4402C12.525 17.6214 12.1843 17.8464 11.8562 18.0652C11.5281 18.2839 11.1406 18.5527 10.7937 18.8183C10.5854 18.9808 10.377 19.1496 10.1687 19.3246C9.85622 19.5871 9.54372 19.8621 9.26872 20.1527C9.04997 20.3777 8.85622 20.6214 8.64372 20.8589C8.59997 20.9089 8.55934 20.9652 8.51247 21.0152C8.34059 21.2027 8.26247 21.2433 8.13747 21.2058C8.10985 21.1993 8.0827 21.191 8.05622 21.1808C7.97497 21.1402 7.99059 21.0152 8.09372 20.8496C8.41396 20.353 8.79504 19.8984 9.22809 19.4964C9.54059 19.1839 9.89372 18.8933 10.2437 18.6121L10.2562 18.6089Z" fill="#121224"/>
<path d="M21.8568 25.8745C21.8465 26.2102 21.8759 26.5458 21.9443 26.8745C21.961 26.953 21.9829 27.0303 22.0099 27.1058C22.031 27.1792 22.0592 27.2504 22.0943 27.3183C22.1244 27.3843 22.1611 27.4471 22.2037 27.5058L22.2287 27.5433L22.2505 27.5652C22.2724 27.5839 22.2943 27.612 22.313 27.6183C22.3318 27.6245 22.363 27.6558 22.3818 27.6527C22.4005 27.6495 22.4099 27.6527 22.4474 27.6308C22.5575 27.5461 22.6489 27.4398 22.7162 27.3183C22.8924 27.0181 23.0449 26.7047 23.1724 26.3808C23.3787 25.8933 23.5412 25.3808 23.7974 24.8745C23.8818 24.6865 23.9866 24.5084 24.1099 24.3433C24.188 24.2146 24.3078 24.1166 24.4494 24.0654C24.5909 24.0143 24.7457 24.0131 24.888 24.062C25.1114 24.1741 25.2988 24.3465 25.4292 24.5597C25.5595 24.7729 25.6276 25.0184 25.6255 25.2683C25.6428 25.6736 25.6049 26.0794 25.513 26.4745C25.4318 26.8589 25.3224 27.2308 25.2224 27.5933C25.1974 27.6839 25.1755 27.7683 25.1568 27.8558C25.138 27.9433 25.1068 28.0589 25.0755 28.1495C25.0162 28.3402 24.9474 28.5214 24.8849 28.6995C24.5645 29.441 24.4387 30.2521 24.5193 31.0558C24.5992 31.5547 24.7777 32.0328 25.0443 32.462L25.2505 32.812C25.3222 32.9382 25.3839 33.0699 25.4349 33.2058C25.5183 33.447 25.6164 33.6828 25.7287 33.912C25.8005 34.0339 25.8224 34.0902 25.788 34.1277C25.7537 34.1652 25.6505 34.1589 25.5099 34.0683C25.337 33.9409 25.1888 33.7831 25.0724 33.6027C25.0005 33.4995 24.9318 33.387 24.8599 33.2902C24.8255 33.2339 24.7912 33.187 24.7568 33.1402C24.7224 33.0933 24.6818 33.0402 24.6349 32.9683C24.2859 32.4807 24.047 31.923 23.9349 31.3339C23.8354 30.7422 23.8556 30.1365 23.9943 29.5527C24.141 29.017 24.3152 28.4892 24.5162 27.9714C24.5349 27.9089 24.5474 27.8558 24.563 27.7964L24.6193 27.587L24.7349 27.187C24.813 26.9277 24.888 26.6683 24.9505 26.412C25.0417 26.0687 25.0817 25.7139 25.0693 25.3589C25.0626 25.2022 25.0254 25.0483 24.9599 24.9058C24.9302 24.846 24.8899 24.792 24.8412 24.7464C24.8162 24.7245 24.8005 24.6933 24.7693 24.6808L24.7224 24.6527C24.7024 24.6408 24.6785 24.6371 24.6558 24.6423C24.6331 24.6476 24.6133 24.6613 24.6005 24.6808C24.5702 24.7144 24.542 24.7499 24.5162 24.787C24.4849 24.8402 24.4505 24.8902 24.4193 24.9495C24.2922 25.1942 24.1785 25.4456 24.0787 25.7027C23.8332 26.4187 23.5192 27.1094 23.1412 27.7652C23.0159 27.9665 22.833 28.1255 22.6162 28.2214C22.477 28.2726 22.3241 28.2726 22.1849 28.2214C22.0661 28.1794 21.959 28.1097 21.8724 28.0183C21.5891 27.6967 21.4066 27.299 21.3474 26.8745C21.2184 25.9363 21.2671 24.9822 21.4912 24.062C21.5779 23.6382 21.6927 23.2206 21.8349 22.812C21.8724 22.712 21.9099 22.612 21.9505 22.4995L22.0443 22.2714C22.0662 22.2183 22.0912 22.1652 22.1099 22.1089C22.1287 22.0527 22.1662 21.9808 22.1099 21.9464C21.9724 21.8495 21.7974 21.9464 21.7005 22.0495C21.6691 22.0775 21.6399 22.1078 21.613 22.1402C21.571 22.1871 21.5314 22.2361 21.4943 22.287C21.4165 22.3863 21.3455 22.4907 21.2818 22.5995C20.7789 23.4933 20.489 24.4911 20.4349 25.5152C20.4349 25.7402 20.4349 25.9558 20.4349 26.1777C20.488 26.9933 20.5412 27.2464 20.4912 27.4589C20.4838 27.5085 20.4734 27.5575 20.4599 27.6058C20.4349 27.662 20.3755 27.6058 20.2755 27.4777C20.1318 27.2618 20.0261 27.023 19.963 26.7714C19.7676 25.7708 19.8322 24.7368 20.1505 23.7683C20.3015 23.2662 20.5113 22.7837 20.7755 22.3308C20.8432 22.2133 20.9173 22.0996 20.9974 21.9902C21.0412 21.9339 21.0787 21.8777 21.1255 21.8245L21.1974 21.7402C21.2346 21.6983 21.2742 21.6586 21.3162 21.6214C21.3999 21.5368 21.4932 21.4624 21.5943 21.3995C21.6826 21.3393 21.7795 21.293 21.8818 21.262C22.0585 21.2037 22.2502 21.2104 22.4224 21.2808C22.4912 21.3152 22.5568 21.3527 22.6255 21.3933C22.7068 21.5152 22.7755 21.562 22.788 21.6839C22.8064 21.827 22.787 21.9725 22.7318 22.1058C22.6787 22.262 22.6005 22.4495 22.5443 22.5839L22.4474 22.8277C22.3226 23.1457 22.2182 23.4713 22.1349 23.8027C21.9659 24.4672 21.8716 25.1485 21.8537 25.8339L21.8568 25.8745Z" fill="#121224"/>
<path d="M18.7783 24.4754C18.7642 23.9535 18.7882 23.4313 18.8502 22.9129C18.8674 22.7176 18.8966 22.5234 18.9377 22.3317C18.9887 22.1167 19.0609 21.9073 19.1533 21.7067C19.2009 21.5968 19.2595 21.4921 19.3283 21.3942C19.4065 21.276 19.5024 21.1706 19.6127 21.0817C19.6498 21.0538 19.6909 21.0316 19.7346 21.016C19.7759 20.9938 19.822 20.982 19.869 20.9817C19.9621 20.979 20.0544 20.9994 20.1377 21.041C20.2189 21.0805 20.2929 21.1333 20.3565 21.1973C20.4094 21.247 20.4566 21.3026 20.4971 21.3629C20.6811 21.6283 20.8097 21.928 20.8752 22.2442C20.9816 22.6296 20.9751 23.0374 20.8565 23.4192C20.819 23.5348 20.7158 23.4942 20.6127 23.3817C20.5543 23.3186 20.5058 23.2469 20.469 23.1692C20.4173 23.0897 20.3871 22.9982 20.3815 22.9035C20.3736 22.5823 20.3091 22.2649 20.1908 21.966C20.1486 21.8323 20.0842 21.7066 20.0002 21.5942C19.9752 21.5629 19.9815 21.566 19.9752 21.5598C19.9723 21.5511 19.9668 21.5435 19.9596 21.5379C19.9515 21.5333 19.9424 21.5308 19.933 21.5308C19.9237 21.5308 19.9145 21.5333 19.9065 21.5379C19.9065 21.5379 19.8627 21.5754 19.8315 21.6035L19.7471 21.7192C19.6957 21.8065 19.6528 21.8986 19.619 21.9942C19.5495 22.198 19.4962 22.407 19.4596 22.6192C19.3784 23.1129 19.3397 23.6126 19.344 24.1129C19.344 24.4254 19.344 24.7379 19.3752 25.0504C19.4073 25.524 19.4646 25.9955 19.5471 26.4629C19.6224 26.8179 19.7173 27.1685 19.8315 27.5129C19.8533 27.5879 19.8846 27.6629 19.9002 27.741C19.9721 28.0285 19.9596 28.1285 19.8502 28.2254C19.8268 28.249 19.8017 28.271 19.7752 28.291C19.6846 28.3473 19.5658 28.2535 19.4627 28.0473C19.1893 27.4085 19.0084 26.734 18.9252 26.0442C18.8492 25.5263 18.8013 25.0047 18.7815 24.4817L18.7783 24.4754Z" fill="#121224"/>
<path d="M17.5851 26.2994C17.4851 25.9619 17.3945 25.6212 17.3133 25.2775C17.282 25.1525 17.2414 25.0275 17.2164 24.8994C17.173 24.6693 17.1459 24.4364 17.1351 24.2025C17.1308 24.0751 17.137 23.9476 17.1539 23.8213C17.1809 23.6848 17.2328 23.5545 17.307 23.4369C17.3768 23.3093 17.4866 23.2083 17.6195 23.1494C17.6898 23.1256 17.7645 23.1172 17.8383 23.1248C17.9122 23.1323 17.9836 23.1556 18.0476 23.1931C18.178 23.2671 18.2961 23.3609 18.3976 23.4712C18.4882 23.5618 18.5623 23.6676 18.6164 23.7837C18.6508 23.8587 18.5664 23.9087 18.4414 23.9244C18.3739 23.9368 18.3047 23.9358 18.2376 23.9213C18.1706 23.9068 18.1071 23.8792 18.0508 23.84C17.9806 23.7712 17.9031 23.7104 17.8195 23.6587C17.8195 23.6587 17.8195 23.6587 17.8008 23.6587C17.7737 23.6936 17.7507 23.7313 17.732 23.7712C17.7008 23.8212 17.7008 23.84 17.6789 23.8712C17.657 23.9025 17.657 23.965 17.6539 24.0212C17.6495 24.3187 17.6917 24.615 17.7789 24.8994C17.8539 25.2306 17.9414 25.565 18.0383 25.8963C18.1008 26.0994 18.1633 26.3025 18.232 26.5025C18.3414 26.815 18.4476 27.1275 18.5789 27.4025C18.632 27.5213 18.6883 27.615 18.7539 27.7431C18.8139 27.8697 18.859 28.0029 18.8883 28.14L18.9226 28.2963C18.9426 28.3518 18.9439 28.4123 18.9265 28.4687C18.909 28.5251 18.8736 28.5742 18.8258 28.6088L18.7633 28.6744C18.7008 28.7463 18.557 28.7025 18.4508 28.5275C18.3289 28.2713 18.307 28.0588 18.232 27.9369C18.1351 27.7494 18.0289 27.5181 17.9414 27.3119C17.807 26.9994 17.6945 26.6494 17.582 26.3119L17.5851 26.2994Z" fill="#121224"/>
<path d="M17.6097 29.3089C18.1184 29.815 18.6536 30.2938 19.2129 30.7433C19.4191 30.9152 19.6347 31.0746 19.8379 31.2558C20.5537 31.8867 21.2087 32.5836 21.7941 33.3371C22.0504 33.6777 22.3035 34.0214 22.5222 34.3808C22.8255 34.8369 23.0377 35.3473 23.1472 35.8839C23.1785 36.0527 23.0691 36.0558 22.9222 35.9558C22.7233 35.8119 22.5606 35.6236 22.4472 35.4058C21.9697 34.4755 21.3707 33.6128 20.666 32.8402C20.2236 32.3541 19.7406 31.9067 19.2222 31.5027C18.666 31.0339 18.0879 30.5652 17.5441 30.0558C17.2093 29.7386 16.8961 29.3993 16.6066 29.0402C16.3826 28.7657 16.1819 28.473 16.0066 28.1652C15.9162 28.0067 15.8429 27.8391 15.7879 27.6652C15.7081 27.4559 15.7081 27.2245 15.7879 27.0152C15.8333 26.9343 15.9011 26.8683 15.9831 26.825C16.0652 26.7818 16.158 26.7632 16.2504 26.7714C16.3421 26.7717 16.432 26.7977 16.5097 26.8464L16.6316 26.9214L16.7222 26.9902C16.941 27.1652 17.1285 27.3402 17.3254 27.5152C17.4097 27.5902 17.4972 27.6589 17.5785 27.7371C17.891 28.0121 17.9254 28.1371 17.941 28.2839C17.9437 28.3172 17.9437 28.3507 17.941 28.3839C17.941 28.4339 17.8941 28.4558 17.7941 28.4464C17.6584 28.4297 17.5281 28.3827 17.4129 28.3089C17.2088 28.1732 17.0165 28.0205 16.8379 27.8527C16.6629 27.6964 16.4785 27.5183 16.3254 27.3964C16.2816 27.3589 16.2879 27.3683 16.2847 27.3683C16.2816 27.3683 16.2847 27.3683 16.2847 27.3683C16.3073 27.4587 16.3387 27.5466 16.3785 27.6308C16.707 28.2395 17.1288 28.7931 17.6285 29.2714L17.6097 29.3089Z" fill="#121224"/>
<path d="M14.3944 18.6531C14.5194 18.5594 14.6444 18.4719 14.7756 18.3844C14.8225 18.3563 14.8631 18.3156 14.9131 18.2875C15.0861 18.188 15.2645 18.0983 15.4475 18.0187C15.5319 17.9844 15.61 17.9438 15.6912 17.9094C15.7873 17.8551 15.8938 17.8221 16.0037 17.8125C16.0725 17.8125 16.0569 18.0625 15.9569 18.125L15.685 18.275C15.5881 18.3156 15.4912 18.3594 15.3881 18.3969C15.2699 18.4547 15.1587 18.526 15.0569 18.6094C14.9381 18.6937 14.8131 18.775 14.6975 18.8656C14.5819 18.9562 14.5506 18.9781 14.4819 19.0375C14.4131 19.0969 14.2694 19.2188 14.1694 19.3188C14.0694 19.4188 14.0381 19.4906 13.9631 19.5656C13.9481 19.5848 13.9313 19.6026 13.9131 19.6187C13.8444 19.6781 13.8069 19.6813 13.7412 19.6375L13.6975 19.6094C13.6762 19.5893 13.6624 19.5625 13.6584 19.5335C13.6544 19.5046 13.6605 19.4751 13.6756 19.45C13.7549 19.2619 13.8743 19.0933 14.0256 18.9563C14.135 18.85 14.2537 18.7531 14.3725 18.6438L14.3944 18.6531Z" fill="#121224"/>
<path d="M22.032 18.6806C21.4913 18.0806 20.9382 17.4993 20.3726 16.9149L19.7476 16.2899C19.0143 15.5524 18.2632 14.8337 17.4945 14.1337C17.1507 13.8212 16.7945 13.5274 16.4382 13.2431C16.207 13.0618 15.9695 12.8868 15.7351 12.7149C15.5007 12.5431 15.2663 12.3556 15.0382 12.2212C14.9726 12.1837 14.9632 12.1618 14.9601 12.1274C14.957 12.0931 15.0101 12.0524 15.107 12.0493C15.3908 12.0529 15.6672 12.141 15.9007 12.3024C16.8868 13.022 17.8137 13.8194 18.6726 14.6868C19.1882 15.2024 19.757 15.7056 20.2851 16.2306C20.8695 16.8056 21.4382 17.3962 21.9976 17.9962C22.3413 18.3649 22.6809 18.7379 23.0163 19.1149C23.5257 19.6837 24.0195 20.2712 24.507 20.8524C24.8851 21.2931 25.2695 21.7274 25.6257 22.1868C25.707 22.2899 25.7851 22.3868 25.8632 22.4993C26.1476 22.8899 26.1757 23.0524 26.157 23.1931C26.157 23.2243 26.157 23.2649 26.1351 23.2868C26.0945 23.3681 25.9257 23.2462 25.6913 22.9743C25.0226 22.1899 24.3476 21.3399 23.6382 20.5118C23.1132 19.8868 22.5757 19.2806 22.0226 18.6806H22.032Z" fill="#121224"/>
<path d="M8.34092 26.9055C9.01592 27.3992 9.68779 27.9055 10.3347 28.4367C10.5722 28.6242 10.8159 28.8055 11.0534 28.9992C11.8868 29.6805 12.6899 30.3919 13.4628 31.1336C13.8034 31.4648 14.1597 31.7867 14.4909 32.1242C14.9323 32.5452 15.3369 33.0031 15.7003 33.493C15.8128 33.6492 15.7253 33.6836 15.5534 33.6211C15.2999 33.5043 15.074 33.3349 14.8909 33.1242C14.0565 32.2367 13.1753 31.393 12.269 30.5429C11.7315 30.0367 11.119 29.5648 10.5222 29.0929C9.868 28.5742 9.20446 28.0679 8.53154 27.5742C8.11592 27.2617 7.70029 26.9711 7.28154 26.6836C6.63467 26.2461 5.99092 25.7898 5.36279 25.3336C4.86592 24.9992 4.37529 24.6461 3.90654 24.2742C3.80342 24.193 3.69717 24.118 3.59404 24.0273C3.22217 23.7148 3.14404 23.5523 3.13467 23.4023C3.13154 23.3691 3.13154 23.3356 3.13467 23.3023C3.15342 23.218 3.34092 23.3023 3.63154 23.5148C4.47529 24.1398 5.35967 24.8148 6.27842 25.4523C6.95654 25.9304 7.65654 26.3898 8.34404 26.8898L8.34092 26.9055Z" fill="#121224"/>
<path d="M10.9031 31.393C10.3593 30.993 9.80932 30.5993 9.24994 30.218C9.04681 30.0743 8.83432 29.9493 8.62494 29.8118C7.90932 29.318 7.18119 28.8368 6.43744 28.3649C6.10931 28.1618 5.77494 27.9586 5.44369 27.7649C5.01869 27.5118 4.58431 27.2743 4.17806 26.9836C4.04994 26.893 4.10931 26.8461 4.25931 26.8493C4.48541 26.8664 4.70508 26.9325 4.90306 27.043C5.34681 27.2868 5.78744 27.5305 6.22181 27.793C6.65619 28.0555 7.07806 28.3336 7.49994 28.6211C8.00307 28.968 8.54994 29.2868 9.06244 29.6336C9.63536 30.0149 10.1999 30.4055 10.7562 30.8055C11.1031 31.0493 11.4343 31.3086 11.7749 31.5586C12.2874 31.9461 12.7874 32.3493 13.2749 32.7586C13.4718 32.9086 13.6499 33.0711 13.8406 33.2368C14.0394 33.3936 14.2264 33.5649 14.3999 33.7493L14.6281 33.9836C14.8812 34.3149 14.9406 34.4461 14.8968 34.568C14.8968 34.5961 14.8968 34.6274 14.8781 34.6461C14.8593 34.6649 14.6812 34.6211 14.4968 34.4118C13.8708 33.789 13.2115 33.2006 12.5218 32.6493L11.7187 32.0243L10.8999 31.3993L10.9031 31.393Z" fill="#121224"/>
<path d="M24.1601 34.3161C23.9573 34.4172 23.7486 34.5059 23.5351 34.5818C23.457 34.6099 23.3851 34.6505 23.307 34.6724C23.0241 34.7617 22.7285 34.8039 22.432 34.7974C22.2862 34.7982 22.1413 34.7739 22.0038 34.7255C21.8997 34.687 21.8108 34.6157 21.7507 34.5224C21.721 34.4767 21.7007 34.4255 21.691 34.3718C21.6814 34.3182 21.6825 34.2631 21.6945 34.2099C21.6945 34.1474 21.8038 34.1661 21.907 34.2099C22.0101 34.2536 22.1195 34.2693 22.1351 34.2755C22.1507 34.2818 22.1601 34.2755 22.182 34.2943C22.2196 34.3057 22.2584 34.3131 22.2976 34.3161C22.4245 34.3239 22.5519 34.3239 22.6788 34.3161C22.8557 34.2942 23.0277 34.2436 23.1882 34.1661C23.3757 34.0943 23.5632 34.013 23.7445 33.9224C23.8538 33.863 23.9663 33.8036 24.057 33.7349C24.2172 33.6375 24.3642 33.5198 24.4945 33.3849C24.5811 33.2812 24.646 33.1611 24.6851 33.0318C24.6836 33.0068 24.6836 32.9817 24.6851 32.9568C24.707 32.8786 24.7413 32.8786 24.9007 32.8755H25.0101C25.0387 32.8726 25.0676 32.8761 25.0947 32.8857C25.1219 32.8954 25.1465 32.9109 25.1668 32.9313C25.1872 32.9516 25.2028 32.9762 25.2124 33.0034C25.222 33.0305 25.2255 33.0594 25.2226 33.088C25.2001 33.2594 25.1427 33.4243 25.054 33.5726C24.9654 33.721 24.8472 33.8496 24.707 33.9505C24.5267 34.095 24.3343 34.2236 24.132 34.3349L24.1601 34.3161Z" fill="#121224"/>
<path d="M24.4776 34.6877C24.4776 34.6877 24.4776 34.6876 24.4776 34.7064C24.4776 34.7251 24.4776 34.7064 24.4776 34.7314V34.8314C24.4776 34.9002 24.4995 34.9595 24.5058 35.0595C24.5102 35.1011 24.5102 35.143 24.5058 35.1845C24.5003 35.209 24.4929 35.233 24.4839 35.2564C24.4537 35.3243 24.4003 35.3792 24.3333 35.4112C24.2663 35.4433 24.1901 35.4504 24.1183 35.4314C24.0848 35.4221 24.0531 35.4073 24.0245 35.3876C23.9722 35.3462 23.9268 35.2966 23.8901 35.2408C23.8209 35.1285 23.7762 35.0028 23.7589 34.872C23.7401 34.7751 23.7245 34.6877 23.7026 34.6127C23.6952 34.5845 23.6847 34.5573 23.6714 34.5314C23.6714 34.5064 23.637 34.5127 23.6714 34.4908C23.7058 34.4689 23.712 34.422 23.7151 34.4439C23.709 34.4696 23.709 34.4963 23.7151 34.522V34.4658V34.4501C23.7372 34.4668 23.7614 34.4805 23.787 34.4908C23.787 34.4908 23.787 34.4908 23.787 34.522C23.7807 34.576 23.7807 34.6305 23.787 34.6845C23.787 34.7158 23.787 34.7439 23.787 34.7845L23.8214 34.9626C23.8464 35.0814 23.8745 35.2002 23.8901 35.3064C23.9193 35.4583 23.9007 35.6155 23.837 35.7564C23.8196 35.7906 23.7924 35.8189 23.7589 35.8377C23.7236 35.8531 23.6846 35.8585 23.6464 35.8533C23.5764 35.8418 23.5094 35.8163 23.4495 35.7783H23.4245C23.2743 35.6757 23.1432 35.5478 23.037 35.4002C22.9805 35.3261 22.92 35.2551 22.8558 35.1876L22.8027 35.1408C22.8136 35.1196 22.823 35.0977 22.8308 35.0751C22.8495 35.0345 22.8308 35.0158 22.8308 35.0314C22.8521 35.0484 22.8765 35.0611 22.9027 35.0689C22.9527 35.0689 22.9308 35.0689 22.937 35.0689C22.9354 35.0813 22.9354 35.094 22.937 35.1064C22.9326 35.1396 22.9326 35.1732 22.937 35.2064C22.9522 35.2761 22.9742 35.3441 23.0026 35.4095C23.0651 35.5439 23.1214 35.6908 23.1964 35.8377C23.2402 35.9283 23.1745 35.9658 23.0495 35.9439C22.9596 35.9264 22.8747 35.8893 22.8007 35.8353C22.7267 35.7813 22.6655 35.7117 22.6214 35.6314C22.5562 35.5047 22.5109 35.3687 22.487 35.2283C22.4724 35.1372 22.4724 35.0444 22.487 34.9533C22.5003 34.8923 22.5281 34.8354 22.5683 34.7877C22.6065 34.7408 22.6575 34.7061 22.7152 34.6877C22.7462 34.6829 22.7778 34.6829 22.8089 34.6877H22.8745C22.9546 34.7013 23.0292 34.7371 23.0901 34.7908C23.1197 34.8163 23.1479 34.8434 23.1745 34.872C23.2027 34.897 23.1933 34.8908 23.1964 34.897C23.2014 34.9121 23.2077 34.9267 23.2151 34.9408C23.2151 34.9408 23.2433 34.9877 23.2714 35.0002C23.2773 35.0045 23.2844 35.0068 23.2917 35.0068C23.299 35.0068 23.3061 35.0045 23.312 35.0002C23.3192 34.9789 23.3192 34.9558 23.312 34.9345L23.2839 34.7595C23.2567 34.6184 23.2631 34.4728 23.3026 34.3345C23.3222 34.2785 23.3531 34.2271 23.3934 34.1835C23.4338 34.14 23.4826 34.1052 23.537 34.0814C23.5886 34.0603 23.6438 34.0497 23.6995 34.0501C23.7613 34.0494 23.8223 34.0633 23.8777 34.0908C23.9904 34.1533 24.0769 34.2542 24.1214 34.3752C24.1509 34.4557 24.1749 34.5382 24.1933 34.622L24.2401 34.8408C24.2456 34.8714 24.2529 34.9017 24.262 34.9314C24.2606 34.9459 24.2606 34.9606 24.262 34.9751L24.2839 35.0033L24.2651 35.022C24.2527 35.0358 24.2413 35.0504 24.2308 35.0658C24.2089 35.1033 24.1933 35.1095 24.187 35.1283C24.1879 35.1387 24.1879 35.1491 24.187 35.1595C24.187 35.1314 23.937 35.1283 24.0058 35.122V35.0783L23.9714 34.8314C23.9311 34.6309 23.9196 34.4258 23.937 34.222C23.9436 34.0636 24.0068 33.9128 24.1151 33.797C24.1399 33.7775 24.166 33.7598 24.1933 33.7439C24.2245 33.7252 24.2558 33.7095 24.2714 33.722L24.387 33.7658C24.4495 33.8439 24.5151 33.9189 24.5839 34.0064L24.7839 34.2908C24.8151 34.3345 24.8558 34.3908 24.8839 34.4252C24.9054 34.4543 24.9294 34.4815 24.9558 34.5064C24.9751 34.5288 24.9972 34.5487 25.0214 34.5658H25.037C25.0324 34.5842 25.0324 34.6036 25.037 34.622C25.0386 34.6138 25.0386 34.6053 25.037 34.597C25.0277 34.5827 25.0131 34.5726 24.9964 34.5689C24.9958 34.5616 24.9958 34.5543 24.9964 34.547C24.9998 34.5242 24.9998 34.5011 24.9964 34.4783C24.9834 34.417 24.9613 34.358 24.9308 34.3033C24.8651 34.1783 24.7651 34.0501 24.6745 33.8939C24.6268 33.8196 24.588 33.7398 24.5589 33.6564C24.5356 33.5673 24.5356 33.4737 24.5589 33.3845C24.5723 33.3137 24.6099 33.2496 24.6651 33.2033C24.6936 33.1752 24.7309 33.1577 24.7707 33.1537C24.8105 33.1497 24.8504 33.1595 24.8839 33.1814C24.9136 33.1948 24.941 33.2127 24.9651 33.2345C25.0308 33.2939 24.9652 33.4658 25.0152 33.4752C25.0652 33.4845 25.0776 33.6001 25.1589 33.7126C25.2558 33.8454 25.3405 33.9866 25.412 34.1345C25.4621 34.2404 25.4907 34.3551 25.4964 34.472C25.5002 34.5491 25.4907 34.6263 25.4683 34.7002C25.4543 34.7418 25.4376 34.7825 25.4183 34.822C25.3732 34.8936 25.3108 34.9526 25.237 34.9939C25.1491 35.0345 25.0504 35.0455 24.9558 35.0252L24.8558 34.9908L24.7995 34.9595C24.7431 34.9236 24.6907 34.8816 24.6433 34.8345C24.6091 34.7997 24.5768 34.7632 24.5464 34.7252L24.5245 34.7002C24.5245 34.6814 24.5058 34.6814 24.5058 34.7002L24.4776 34.6877Z" fill="#121224"/>
</svg>
